<?xml version="1.0" encoding="utf-8"?>
<!-- Generator: Adobe Illustrator 24.0.1, SVG Export Plug-In . SVG Version: 6.00 Build 0)  -->
<svg version="1.1" id="图层_1" xmlns="http://www.w3.org/2000/svg" xmlns:xlink="http://www.w3.org/1999/xlink" x="0px" y="0px"
	 viewBox="0 0 500 300" style="enable-background:new 0 0 500 300;" xml:space="preserve">
<style type="text/css">
	.st0{fill:url(#SVGID_1_);}
	.st1{fill:url(#SVGID_2_);}
	.st2{fill:url(#SVGID_3_);}
	.st3{fill:url(#SVGID_4_);}
	.st4{fill:#C7CCE0;}
	.st5{fill:#E2E4ED;}
	.st6{fill:url(#SVGID_5_);}
	.st7{fill:url(#SVGID_6_);}
	.st8{fill:url(#SVGID_7_);}
	.st9{fill:url(#SVGID_8_);}
	.st10{fill:url(#SVGID_9_);}
	.st11{fill:url(#SVGID_10_);}
	.st12{fill:none;stroke:#C7CCE0;stroke-width:2;stroke-linecap:round;stroke-miterlimit:10;}
	.st13{font-family:'MarkerFelt-Wide';}
	.st14{font-size:16px;}
</style>
<title>404缺省页</title>
<linearGradient id="SVGID_1_" gradientUnits="userSpaceOnUse" x1="250" y1="17.78" x2="250" y2="110.78" gradientTransform="matrix(1 0 0 -1 0 302)">
	<stop  offset="0" style="stop-color:#FFF9EF;stop-opacity:0"/>
	<stop  offset="0.17" style="stop-color:#FEF8EF;stop-opacity:2.000000e-02"/>
	<stop  offset="0.32" style="stop-color:#FBF5EE;stop-opacity:6.000000e-02"/>
	<stop  offset="0.46" style="stop-color:#F5F1EC;stop-opacity:0.14"/>
	<stop  offset="0.6" style="stop-color:#EDEBEA;stop-opacity:0.26"/>
	<stop  offset="0.74" style="stop-color:#E3E2E7;stop-opacity:0.4"/>
	<stop  offset="0.87" style="stop-color:#D6D8E4;stop-opacity:0.58"/>
	<stop  offset="0.99" style="stop-color:#C8CDE0;stop-opacity:0.79"/>
	<stop  offset="1" style="stop-color:#C7CCE0;stop-opacity:0.8"/>
</linearGradient>
<ellipse class="st0" cx="250" cy="237.7" rx="146" ry="46.5"/>
<linearGradient id="SVGID_2_" gradientUnits="userSpaceOnUse" x1="153.66" y1="1114.4421" x2="209.4589" y2="1170.2412" gradientTransform="matrix(0.7071 0.7071 0.7071 -0.7071 -862.6414 804.5886)">
	<stop  offset="0" style="stop-color:#FFF9EF;stop-opacity:0"/>
	<stop  offset="0.17" style="stop-color:#FEF8EF;stop-opacity:2.000000e-02"/>
	<stop  offset="0.32" style="stop-color:#FBF5EE;stop-opacity:6.000000e-02"/>
	<stop  offset="0.46" style="stop-color:#F5F1EC;stop-opacity:0.14"/>
	<stop  offset="0.6" style="stop-color:#EDEBEA;stop-opacity:0.26"/>
	<stop  offset="0.74" style="stop-color:#E3E2E7;stop-opacity:0.4"/>
	<stop  offset="0.87" style="stop-color:#D6D8E4;stop-opacity:0.58"/>
	<stop  offset="0.99" style="stop-color:#C8CDE0;stop-opacity:0.79"/>
	<stop  offset="1" style="stop-color:#C7CCE0;stop-opacity:0.8"/>
</linearGradient>
<path class="st1" d="M108.9,89.9L108.9,89.9c5.5,5.5,5.5,14.3,0,19.8l-50.9,50.9c-5.5,5.5-14.3,5.5-19.8,0l0,0
	c-5.5-5.5-5.5-14.3,0-19.8l50.9-50.9C94.5,84.4,103.4,84.4,108.9,89.9z"/>
<linearGradient id="SVGID_3_" gradientUnits="userSpaceOnUse" x1="432.2649" y1="1309.5978" x2="488.0639" y2="1365.3967" gradientTransform="matrix(0.7071 0.7071 0.7071 -0.7071 -862.6389 804.5877)">
	<stop  offset="0" style="stop-color:#FFF9EF;stop-opacity:0"/>
	<stop  offset="0.17" style="stop-color:#FEF8EF;stop-opacity:2.000000e-02"/>
	<stop  offset="0.32" style="stop-color:#FBF5EE;stop-opacity:6.000000e-02"/>
	<stop  offset="0.46" style="stop-color:#F5F1EC;stop-opacity:0.14"/>
	<stop  offset="0.6" style="stop-color:#EDEBEA;stop-opacity:0.26"/>
	<stop  offset="0.74" style="stop-color:#E3E2E7;stop-opacity:0.4"/>
	<stop  offset="0.87" style="stop-color:#D6D8E4;stop-opacity:0.58"/>
	<stop  offset="0.99" style="stop-color:#C8CDE0;stop-opacity:0.79"/>
	<stop  offset="1" style="stop-color:#C7CCE0;stop-opacity:0.8"/>
</linearGradient>
<path class="st2" d="M443.9,148.9L443.9,148.9c5.5,5.5,5.5,14.3,0,19.8l-50.9,50.9c-5.5,5.5-14.3,5.5-19.8,0l0,0
	c-5.5-5.5-5.5-14.3,0-19.8l50.9-50.9C429.5,143.4,438.4,143.4,443.9,148.9z"/>
<linearGradient id="SVGID_4_" gradientUnits="userSpaceOnUse" x1="353.7715" y1="1413.5441" x2="409.5722" y2="1469.335" gradientTransform="matrix(0.7071 0.7071 0.7071 -0.7071 -862.6301 804.5864)">
	<stop  offset="0" style="stop-color:#FFF9EF;stop-opacity:0"/>
	<stop  offset="0.17" style="stop-color:#FEF8EF;stop-opacity:2.000000e-02"/>
	<stop  offset="0.32" style="stop-color:#FBF5EE;stop-opacity:6.000000e-02"/>
	<stop  offset="0.46" style="stop-color:#F5F1EC;stop-opacity:0.14"/>
	<stop  offset="0.6" style="stop-color:#EDEBEA;stop-opacity:0.26"/>
	<stop  offset="0.74" style="stop-color:#E3E2E7;stop-opacity:0.4"/>
	<stop  offset="0.87" style="stop-color:#D6D8E4;stop-opacity:0.58"/>
	<stop  offset="0.99" style="stop-color:#C8CDE0;stop-opacity:0.79"/>
	<stop  offset="1" style="stop-color:#C7CCE0;stop-opacity:0.8"/>
</linearGradient>
<path class="st3" d="M461.9,19.9L461.9,19.9c5.5,5.5,5.5,14.3,0,19.8l-50.9,50.9c-5.5,5.5-14.3,5.5-19.8,0l0,0
	c-5.5-5.5-5.5-14.3,0-19.8l50.9-50.9C447.5,14.4,456.4,14.4,461.9,19.9z"/>
<path class="st4" d="M144.6,93.2l28.6-6.2l9.4,60.4l13-2.3l3.1,20.1l-13,2.1l3,18.4l-26,4.2l-3-17.9l-42.9,6.9l-3.6-21.4L144.6,93.2
	z M154,111.8l-19.9,46.4l25.5-4.2L154,111.8z"/>
<path class="st5" d="M141.5,92.5l28.3-4.7l9.9,60l13-2.1l2.8,17.2l-13,2.1l3,18.4l-23.3,3.8l-3-18.4l-42.9,7.1l-3.5-21.1L141.5,92.5
	z M150.7,109.5l-19.9,46.4l25.5-4.2L150.7,109.5z"/>
<path class="st4" d="M336.3,92.2l27.8,4.2l-12,57.5l12.5,2.4l-4.1,19.2l-12.4-2.5l-3.5,17.6l-24.9-5.1l3.3-17.2l-40.9-8.4l4.1-20.5
	L336.3,92.2z M338.4,112.1l-33.7,34.9l24.4,4.9L338.4,112.1z"/>
<path class="st5" d="M333.8,90.4l27,5.4l-11.5,57.3l12.4,2.5l-3.3,16.5l-12.4-2.5l-3.5,17.6l-22.3-4.5l3.5-17.6l-41-8.2l4.1-20.2
	L333.8,90.4z M336.3,108.9l-33.7,34.9l24.4,4.9L336.3,108.9z"/>
<linearGradient id="SVGID_5_" gradientUnits="userSpaceOnUse" x1="241.17" y1="118.5" x2="241.17" y2="126" gradientTransform="matrix(1 0 0 -1 0 302)">
	<stop  offset="0" style="stop-color:#FFF9EF;stop-opacity:0"/>
	<stop  offset="0.17" style="stop-color:#FEF8EF;stop-opacity:2.000000e-02"/>
	<stop  offset="0.32" style="stop-color:#FBF5EE;stop-opacity:6.000000e-02"/>
	<stop  offset="0.46" style="stop-color:#F5F1EC;stop-opacity:0.14"/>
	<stop  offset="0.6" style="stop-color:#EDEBEA;stop-opacity:0.26"/>
	<stop  offset="0.74" style="stop-color:#E3E2E7;stop-opacity:0.4"/>
	<stop  offset="0.87" style="stop-color:#D6D8E4;stop-opacity:0.58"/>
	<stop  offset="0.99" style="stop-color:#C8CDE0;stop-opacity:0.79"/>
	<stop  offset="1" style="stop-color:#C7CCE0;stop-opacity:0.8"/>
</linearGradient>
<ellipse class="st6" cx="241.2" cy="179.8" rx="20.2" ry="3.8"/>
<ellipse transform="matrix(0.1602 -0.9871 0.9871 0.1602 74.2175 347.2322)" class="st5" cx="241.2" cy="130" rx="31" ry="31"/>
<linearGradient id="SVGID_6_" gradientUnits="userSpaceOnUse" x1="277.5005" y1="194.6692" x2="272.4995" y2="203.3308" gradientTransform="matrix(1 0 0 -1 0 302)">
	<stop  offset="0" style="stop-color:#E2E4ED;stop-opacity:0"/>
	<stop  offset="1.000000e-02" style="stop-color:#E2E4ED;stop-opacity:0.1"/>
	<stop  offset="4.000000e-02" style="stop-color:#E2E4ED;stop-opacity:0.23"/>
	<stop  offset="6.000000e-02" style="stop-color:#E2E4ED;stop-opacity:0.35"/>
	<stop  offset="9.000000e-02" style="stop-color:#E2E4ED;stop-opacity:0.44"/>
	<stop  offset="0.13" style="stop-color:#E2E4ED;stop-opacity:0.51"/>
	<stop  offset="0.17" style="stop-color:#E2E4ED;stop-opacity:0.56"/>
	<stop  offset="0.23" style="stop-color:#E2E4ED;stop-opacity:0.59"/>
	<stop  offset="0.39" style="stop-color:#E2E4ED;stop-opacity:0.6"/>
	<stop  offset="0.65" style="stop-color:#D8DBE8;stop-opacity:0.75"/>
	<stop  offset="1" style="stop-color:#C7CCE0"/>
</linearGradient>
<circle class="st7" cx="275" cy="103" r="5"/>
<linearGradient id="SVGID_7_" gradientUnits="userSpaceOnUse" x1="233.5005" y1="181.6692" x2="228.4995" y2="190.3308" gradientTransform="matrix(1 0 0 -1 0 302)">
	<stop  offset="0" style="stop-color:#E2E4ED;stop-opacity:0"/>
	<stop  offset="1.000000e-02" style="stop-color:#E2E4ED;stop-opacity:0.1"/>
	<stop  offset="4.000000e-02" style="stop-color:#E2E4ED;stop-opacity:0.23"/>
	<stop  offset="6.000000e-02" style="stop-color:#E2E4ED;stop-opacity:0.35"/>
	<stop  offset="9.000000e-02" style="stop-color:#E2E4ED;stop-opacity:0.44"/>
	<stop  offset="0.13" style="stop-color:#E2E4ED;stop-opacity:0.51"/>
	<stop  offset="0.17" style="stop-color:#E2E4ED;stop-opacity:0.56"/>
	<stop  offset="0.23" style="stop-color:#E2E4ED;stop-opacity:0.59"/>
	<stop  offset="0.39" style="stop-color:#E2E4ED;stop-opacity:0.6"/>
	<stop  offset="0.65" style="stop-color:#D8DBE8;stop-opacity:0.75"/>
	<stop  offset="1" style="stop-color:#C7CCE0"/>
</linearGradient>
<circle class="st8" cx="231" cy="116" r="5"/>
<linearGradient id="SVGID_8_" gradientUnits="userSpaceOnUse" x1="225.2508" y1="156.4687" x2="221.7492" y2="162.5313" gradientTransform="matrix(1 0 0 -1 0 302)">
	<stop  offset="0" style="stop-color:#E2E4ED;stop-opacity:0"/>
	<stop  offset="1.000000e-02" style="stop-color:#E2E4ED;stop-opacity:0.1"/>
	<stop  offset="4.000000e-02" style="stop-color:#E2E4ED;stop-opacity:0.23"/>
	<stop  offset="6.000000e-02" style="stop-color:#E2E4ED;stop-opacity:0.35"/>
	<stop  offset="9.000000e-02" style="stop-color:#E2E4ED;stop-opacity:0.44"/>
	<stop  offset="0.13" style="stop-color:#E2E4ED;stop-opacity:0.51"/>
	<stop  offset="0.17" style="stop-color:#E2E4ED;stop-opacity:0.56"/>
	<stop  offset="0.23" style="stop-color:#E2E4ED;stop-opacity:0.59"/>
	<stop  offset="0.39" style="stop-color:#E2E4ED;stop-opacity:0.6"/>
	<stop  offset="0.65" style="stop-color:#D8DBE8;stop-opacity:0.75"/>
	<stop  offset="1" style="stop-color:#C7CCE0"/>
</linearGradient>
<circle class="st9" cx="223.5" cy="142.5" r="3.5"/>
<linearGradient id="SVGID_9_" gradientUnits="userSpaceOnUse" x1="260.2406" y1="147.2361" x2="257.7606" y2="151.5361" gradientTransform="matrix(1 0 0 -1 0 302)">
	<stop  offset="0" style="stop-color:#E2E4ED;stop-opacity:0"/>
	<stop  offset="1.000000e-02" style="stop-color:#E2E4ED;stop-opacity:0.1"/>
	<stop  offset="4.000000e-02" style="stop-color:#E2E4ED;stop-opacity:0.23"/>
	<stop  offset="6.000000e-02" style="stop-color:#E2E4ED;stop-opacity:0.35"/>
	<stop  offset="9.000000e-02" style="stop-color:#E2E4ED;stop-opacity:0.44"/>
	<stop  offset="0.13" style="stop-color:#E2E4ED;stop-opacity:0.51"/>
	<stop  offset="0.17" style="stop-color:#E2E4ED;stop-opacity:0.56"/>
	<stop  offset="0.23" style="stop-color:#E2E4ED;stop-opacity:0.59"/>
	<stop  offset="0.39" style="stop-color:#E2E4ED;stop-opacity:0.6"/>
	<stop  offset="0.65" style="stop-color:#D8DBE8;stop-opacity:0.75"/>
	<stop  offset="1" style="stop-color:#C7CCE0"/>
</linearGradient>
<path class="st10" d="M259.5,150c-1.9,0-3.5,1.6-3.5,3.5c0,1.1,0.6,2.2,1.5,2.8c1.9-1.2,3.7-2.6,5.3-4.1
	C262.3,150.9,260.9,150,259.5,150z"/>
<linearGradient id="SVGID_10_" gradientUnits="userSpaceOnUse" x1="258.7513" y1="163.1379" x2="250.2488" y2="177.8621" gradientTransform="matrix(1 0 0 -1 0 302)">
	<stop  offset="0" style="stop-color:#E2E4ED;stop-opacity:0"/>
	<stop  offset="1.000000e-02" style="stop-color:#E2E4ED;stop-opacity:0.1"/>
	<stop  offset="4.000000e-02" style="stop-color:#E2E4ED;stop-opacity:0.23"/>
	<stop  offset="6.000000e-02" style="stop-color:#E2E4ED;stop-opacity:0.35"/>
	<stop  offset="9.000000e-02" style="stop-color:#E2E4ED;stop-opacity:0.44"/>
	<stop  offset="0.13" style="stop-color:#E2E4ED;stop-opacity:0.51"/>
	<stop  offset="0.17" style="stop-color:#E2E4ED;stop-opacity:0.56"/>
	<stop  offset="0.23" style="stop-color:#E2E4ED;stop-opacity:0.59"/>
	<stop  offset="0.39" style="stop-color:#E2E4ED;stop-opacity:0.6"/>
	<stop  offset="0.65" style="stop-color:#D8DBE8;stop-opacity:0.75"/>
	<stop  offset="1" style="stop-color:#C7CCE0"/>
</linearGradient>
<circle class="st11" cx="254.5" cy="131.5" r="8.5"/>
<path class="st12" d="M272.3,121.3c5.7-0.1,9.4,0.7,9.9,2.4c1.1,4.3-16.2,12.6-38.8,18.7s-41.8,7.5-43,3.2c-0.5-1.9,2.8-4.7,8.6-7.7
	"/>
<text transform="matrix(1 0 0 1 128.2892 227.6725)"><tspan x="0" y="0" class="st4 st13 st14">Oops, what you were looking for </tspan><tspan x="6.9" y="21" class="st4 st13 st14">doesn&apos;t seem to exist anymore.</tspan></text>
<text transform="matrix(1 0 0 1 126.3369 227.6722)"><tspan x="0" y="0" class="st5 st13 st14">Oops, what you were looking for </tspan><tspan x="6.9" y="21" class="st5 st13 st14">doesn&apos;t seem to exist anymore.</tspan></text>
</svg>
