<svg xmlns="http://www.w3.org/2000/svg" xmlns:xlink="http://www.w3.org/1999/xlink" viewBox="0 0 431.92 268.46"><defs><style>.cls-1{fill:url(#未命名的渐变_5);}.cls-2{fill:url(#未命名的渐变_5-2);}.cls-3{fill:url(#未命名的渐变_5-3);}.cls-4{fill:url(#未命名的渐变_5-4);}.cls-14,.cls-5{fill:#c7cce0;}.cls-42,.cls-6{fill:#e2e4ed;}.cls-7{fill:url(#未命名的渐变_5-5);}.cls-8{fill:url(#未命名的渐变_10);}.cls-9{fill:url(#未命名的渐变_10-2);}.cls-10{fill:url(#未命名的渐变_10-3);}.cls-11{fill:url(#未命名的渐变_10-4);}.cls-12{fill:url(#未命名的渐变_10-5);}.cls-13{fill:none;stroke:#c7cce0;stroke-linecap:round;stroke-miterlimit:10;stroke-width:2px;}.cls-14,.cls-42{font-size:16px;font-family:MarkerFelt-Wide, Marker Felt;letter-spacing:0.09em;}.cls-15{letter-spacing:0.08em;}.cls-16{letter-spacing:0.09em;}.cls-17{letter-spacing:0em;}.cls-18{letter-spacing:0.06em;}.cls-19{letter-spacing:0.1em;}.cls-20{letter-spacing:0.1em;}.cls-21{letter-spacing:0.11em;}.cls-22{letter-spacing:0.09em;}.cls-23{letter-spacing:0.06em;}.cls-24{letter-spacing:0.1em;}.cls-25{letter-spacing:0.12em;}.cls-26{letter-spacing:0.1em;}.cls-27{letter-spacing:0.09em;}.cls-28{letter-spacing:0.11em;}.cls-29{letter-spacing:0.1em;}.cls-30{letter-spacing:0.08em;}.cls-31{letter-spacing:0.11em;}.cls-32{letter-spacing:0.1em;}.cls-33{letter-spacing:0.11em;}.cls-34{letter-spacing:-0.03em;}.cls-35{letter-spacing:0.1em;}.cls-36{letter-spacing:0.09em;}.cls-37{letter-spacing:0.09em;}.cls-38{letter-spacing:0.09em;}.cls-39{letter-spacing:0.08em;}.cls-40{letter-spacing:0.11em;}.cls-41{letter-spacing:0.1em;}</style><linearGradient id="未命名的渐变_5" x1="215.96" y1="2.02" x2="215.96" y2="95.02" gradientTransform="matrix(1, 0, 0, -1, 0, 270.48)" gradientUnits="userSpaceOnUse"><stop offset="0" stop-color="#fff9ef" stop-opacity="0"/><stop offset="0.17" stop-color="#fef8ef" stop-opacity="0.02"/><stop offset="0.32" stop-color="#fbf5ee" stop-opacity="0.06"/><stop offset="0.46" stop-color="#f5f1ec" stop-opacity="0.14"/><stop offset="0.6" stop-color="#edebea" stop-opacity="0.26"/><stop offset="0.74" stop-color="#e3e2e7" stop-opacity="0.4"/><stop offset="0.87" stop-color="#d6d8e4" stop-opacity="0.58"/><stop offset="0.99" stop-color="#c8cde0" stop-opacity="0.79"/><stop offset="1" stop-color="#c7cce0" stop-opacity="0.8"/></linearGradient><linearGradient id="未命名的渐变_5-2" x1="119.62" y1="1098.68" x2="175.42" y2="1154.48" gradientTransform="matrix(0.71, 0.71, 0.71, -0.71, -861.47, 801.75)" xlink:href="#未命名的渐变_5"/><linearGradient id="未命名的渐变_5-3" x1="398.22" y1="1293.84" x2="454.02" y2="1349.64" gradientTransform="matrix(0.71, 0.71, 0.71, -0.71, -861.46, 801.75)" xlink:href="#未命名的渐变_5"/><linearGradient id="未命名的渐变_5-4" x1="319.73" y1="1397.78" x2="375.53" y2="1453.57" gradientTransform="matrix(0.71, 0.71, 0.71, -0.71, -861.46, 801.75)" xlink:href="#未命名的渐变_5"/><linearGradient id="未命名的渐变_5-5" x1="207.13" y1="102.74" x2="207.13" y2="110.24" xlink:href="#未命名的渐变_5"/><linearGradient id="未命名的渐变_10" x1="243.46" y1="178.91" x2="238.46" y2="187.57" gradientTransform="matrix(1, 0, 0, -1, 0, 270.48)" gradientUnits="userSpaceOnUse"><stop offset="0" stop-color="#e2e4ed" stop-opacity="0"/><stop offset="0.01" stop-color="#e2e4ed" stop-opacity="0.1"/><stop offset="0.04" stop-color="#e2e4ed" stop-opacity="0.23"/><stop offset="0.06" stop-color="#e2e4ed" stop-opacity="0.35"/><stop offset="0.09" stop-color="#e2e4ed" stop-opacity="0.44"/><stop offset="0.13" stop-color="#e2e4ed" stop-opacity="0.51"/><stop offset="0.17" stop-color="#e2e4ed" stop-opacity="0.56"/><stop offset="0.23" stop-color="#e2e4ed" stop-opacity="0.59"/><stop offset="0.39" stop-color="#e2e4ed" stop-opacity="0.6"/><stop offset="0.65" stop-color="#d8dbe8" stop-opacity="0.75"/><stop offset="1" stop-color="#c7cce0"/></linearGradient><linearGradient id="未命名的渐变_10-2" x1="199.46" y1="165.91" x2="194.46" y2="174.57" xlink:href="#未命名的渐变_10"/><linearGradient id="未命名的渐变_10-3" x1="191.21" y1="140.71" x2="187.71" y2="146.77" xlink:href="#未命名的渐变_10"/><linearGradient id="未命名的渐变_10-4" x1="226.2" y1="131.47" x2="223.72" y2="135.77" xlink:href="#未命名的渐变_10"/><linearGradient id="未命名的渐变_10-5" x1="224.71" y1="147.38" x2="216.21" y2="162.1" xlink:href="#未命名的渐变_10"/></defs><title>404_2</title><g id="图层_2" data-name="图层 2"><g id="图层_1-2" data-name="图层 1"><ellipse class="cls-1" cx="215.96" cy="221.96" rx="146" ry="46.5"/><path class="cls-2" d="M74.81,74.1h0a14,14,0,0,1,0,19.8L23.9,144.81a14,14,0,0,1-19.8,0h0a14,14,0,0,1,0-19.8L55,74.1A14,14,0,0,1,74.81,74.1Z"/><path class="cls-3" d="M409.81,133.1h0a14,14,0,0,1,0,19.8L358.9,203.81a14,14,0,0,1-19.8,0h0a14,14,0,0,1,0-19.8L390,133.1A14,14,0,0,1,409.81,133.1Z"/><path class="cls-4" d="M427.82,4.1h0a14,14,0,0,1,0,19.8L376.91,74.81a14,14,0,0,1-19.8,0h0a14,14,0,0,1,0-19.8L408,4.1A14,14,0,0,1,427.82,4.1Z"/><path class="cls-5" d="M110.59,77.47l28.59-6.18,9.45,60.37,13-2.31,3.06,20.15-13,2.14,3,18.45-26,4.15-3-17.93-42.9,6.86-3.55-21.41ZM120,96.08l-19.89,46.36,25.52-4.2Z"/><path class="cls-6" d="M107.47,76.72l28.28-4.66,9.88,60,13-2.14,2.84,17.24-13,2.14,3,18.45-23.3,3.84-3-18.45-42.9,7.1L78.79,139.1Zm9.23,17L96.81,140.08l25.52-4.2Z"/><path class="cls-5" d="M302.26,76.42l27.83,4.18-12,57.53,12.52,2.36-4.11,19.17L314,157.16l-3.55,17.63-24.85-5.15L289,152.49,248,144.06l4.09-20.47Zm2.11,19.94L270.69,131.3l24.39,4.94Z"/><path class="cls-6" d="M299.71,74.68l27,5.44-11.54,57.34,12.42,2.5-3.32,16.47-12.42-2.5-3.55,17.63L286,167.08l3.55-17.63-41-8.25L252.65,121Zm2.51,18.45-33.68,34.94L293,133Z"/><ellipse class="cls-7" cx="207.13" cy="163.99" rx="20.21" ry="3.75"/><circle class="cls-6" cx="207.13" cy="114.24" r="31" transform="translate(61.19 300.39) rotate(-80.78)"/><circle class="cls-8" cx="240.96" cy="87.24" r="5"/><circle class="cls-9" cx="196.96" cy="100.24" r="5"/><circle class="cls-10" cx="189.46" cy="126.74" r="3.5"/><path class="cls-11" d="M225.46,134.24a3.5,3.5,0,0,0-2,6.36,31.3,31.3,0,0,0,5.27-4.12A3.49,3.49,0,0,0,225.46,134.24Z"/><circle class="cls-12" cx="220.46" cy="115.74" r="8.5"/><path class="cls-13" d="M238.29,105.5c5.73-.13,9.38.65,9.85,2.44,1.14,4.27-16.24,12.63-38.82,18.69s-41.82,7.5-43,3.23c-.52-1.93,2.77-4.71,8.63-7.73"/><text class="cls-14" transform="translate(90.18 211.91)">O<tspan class="cls-15" x="11.54" y="0">o</tspan><tspan class="cls-16" x="20.54" y="0">p</tspan><tspan class="cls-17" x="30.4" y="0">s</tspan><tspan class="cls-18" x="36.91" y="0">, </tspan><tspan class="cls-19" x="47.57" y="0">w</tspan><tspan class="cls-20" x="60.37" y="0">h</tspan><tspan class="cls-18" x="70" y="0">at y</tspan><tspan class="cls-21" x="101.23" y="0">o</tspan><tspan class="cls-18" x="110.64" y="0">u w</tspan><tspan class="cls-22" x="136.62" y="0">e</tspan><tspan class="cls-23" x="145.31" y="0">re </tspan><tspan class="cls-24" x="165.69" y="0">l</tspan><tspan class="cls-25" x="170.89" y="0">o</tspan><tspan class="cls-26" x="180.43" y="0">o</tspan><tspan class="cls-27" x="189.74" y="0">k</tspan><tspan class="cls-28" x="199.29" y="0">i</tspan><tspan class="cls-20" x="204.94" y="0">n</tspan><tspan class="cls-23" x="214.57" y="0">g f</tspan><tspan class="cls-29" x="234.8" y="0">o</tspan><tspan class="cls-23" x="244.14" y="0">r </tspan><tspan class="cls-30"><tspan x="7.08" y="21">d</tspan><tspan class="cls-31" x="16.92" y="21">o</tspan><tspan class="cls-32" x="26.28" y="21">e</tspan><tspan class="cls-33" x="35.03" y="21">s</tspan><tspan class="cls-34" x="43.3" y="21">n</tspan><tspan class="cls-35" x="50.79" y="21">&apos;</tspan><tspan class="cls-18" x="55.85" y="21">t </tspan><tspan class="cls-36" x="68.1" y="21">s</tspan><tspan class="cls-37" x="76.07" y="21">e</tspan><tspan class="cls-38" x="84.69" y="21">e</tspan><tspan class="cls-23" x="93.4" y="21">m to e</tspan><tspan class="cls-21" x="140.89" y="21">x</tspan><tspan class="cls-39" x="151.57" y="21">i</tspan><tspan class="cls-23" x="156.68" y="21">st </tspan><tspan class="cls-40" x="176.42" y="21">a</tspan><tspan x="186.41" y="21">n</tspan><tspan class="cls-41" x="195.77" y="21">y</tspan><tspan class="cls-19" x="206.31" y="21">m</tspan><tspan class="cls-29" x="220.55" y="21">o</tspan><tspan class="cls-23" x="229.89" y="21">re.</tspan></tspan></text><text class="cls-42" transform="translate(88.22 211.91)">O<tspan class="cls-15" x="11.54" y="0">o</tspan><tspan class="cls-16" x="20.54" y="0">p</tspan><tspan class="cls-17" x="30.4" y="0">s</tspan><tspan class="cls-18" x="36.91" y="0">, </tspan><tspan class="cls-19" x="47.57" y="0">w</tspan><tspan class="cls-20" x="60.37" y="0">h</tspan><tspan class="cls-18" x="70" y="0">at y</tspan><tspan class="cls-21" x="101.23" y="0">o</tspan><tspan class="cls-18" x="110.64" y="0">u w</tspan><tspan class="cls-22" x="136.62" y="0">e</tspan><tspan class="cls-23" x="145.31" y="0">re </tspan><tspan class="cls-24" x="165.69" y="0">l</tspan><tspan class="cls-25" x="170.89" y="0">o</tspan><tspan class="cls-26" x="180.43" y="0">o</tspan><tspan class="cls-27" x="189.74" y="0">k</tspan><tspan class="cls-28" x="199.29" y="0">i</tspan><tspan class="cls-20" x="204.94" y="0">n</tspan><tspan class="cls-23" x="214.57" y="0">g f</tspan><tspan class="cls-29" x="234.8" y="0">o</tspan><tspan class="cls-23" x="244.14" y="0">r </tspan><tspan class="cls-30"><tspan x="7.08" y="21">d</tspan><tspan class="cls-31" x="16.92" y="21">o</tspan><tspan class="cls-32" x="26.28" y="21">e</tspan><tspan class="cls-33" x="35.03" y="21">s</tspan><tspan class="cls-34" x="43.3" y="21">n</tspan><tspan class="cls-35" x="50.79" y="21">&apos;</tspan><tspan class="cls-18" x="55.85" y="21">t </tspan><tspan class="cls-36" x="68.1" y="21">s</tspan><tspan class="cls-37" x="76.07" y="21">e</tspan><tspan class="cls-38" x="84.69" y="21">e</tspan><tspan class="cls-23" x="93.4" y="21">m to e</tspan><tspan class="cls-21" x="140.89" y="21">x</tspan><tspan class="cls-39" x="151.57" y="21">i</tspan><tspan class="cls-23" x="156.68" y="21">st </tspan><tspan class="cls-40" x="176.42" y="21">a</tspan><tspan x="186.41" y="21">n</tspan><tspan class="cls-41" x="195.77" y="21">y</tspan><tspan class="cls-19" x="206.31" y="21">m</tspan><tspan class="cls-29" x="220.55" y="21">o</tspan><tspan class="cls-23" x="229.89" y="21">re.</tspan></tspan></text></g></g></svg>